<svg width="40" height="32" viewBox="0 0 40 32" fill="none" xmlns="http://www.w3.org/2000/svg">
<path d="M0 31.0051V7.30254H3.48101L3.62342 9.05887C3.85549 8.77406 4.10865 8.51562 4.38291 8.28356C4.65717 8.05149 4.95253 7.85107 5.26899 7.68229C5.68038 7.46077 6.13397 7.292 6.62975 7.17596C7.12553 7.04938 7.65295 6.98609 8.21203 6.98609C9.30907 6.98609 10.2743 7.19706 11.1076 7.619C11.9515 8.04094 12.6582 8.63693 13.2278 9.40698C13.7869 10.177 14.2141 11.1 14.5095 12.176C14.8049 13.2414 14.9525 14.4175 14.9525 15.7044V16.0367C14.9525 17.2709 14.8049 18.4207 14.5095 19.4861C14.2247 20.5515 13.7975 21.4692 13.2278 22.2393C12.6582 23.0198 11.9568 23.6317 11.1234 24.0747C10.2901 24.5177 9.33544 24.7393 8.25949 24.7393C7.64768 24.7393 7.08333 24.676 6.56646 24.5494C6.06013 24.4228 5.59072 24.2382 5.15823 23.9956C4.90506 23.8479 4.66245 23.6791 4.43038 23.4893C4.19831 23.2994 3.98207 23.0937 3.78165 22.8722V31.0051H0ZM11.1709 15.7044C11.1709 14.9344 11.0918 14.2118 10.9335 13.5367C10.7859 12.8511 10.5538 12.2551 10.2373 11.7487C9.91034 11.2424 9.49367 10.8416 8.98734 10.5462C8.48101 10.2509 7.87447 10.1032 7.16772 10.1032C6.77743 10.1032 6.4135 10.1454 6.07595 10.2298C5.7384 10.3141 5.43776 10.4355 5.17405 10.5937C4.86814 10.7625 4.59916 10.9734 4.36709 11.2266C4.14557 11.4798 3.95042 11.7646 3.78165 12.081V19.6918C3.92933 19.9871 4.10865 20.2561 4.31962 20.4987C4.53059 20.7414 4.77321 20.9523 5.04747 21.1317C5.33228 21.3004 5.65401 21.4376 6.01266 21.543C6.37131 21.638 6.76688 21.6855 7.19937 21.6855C7.90612 21.6855 8.50738 21.5378 9.00317 21.2424C9.50949 20.9365 9.92089 20.5251 10.2373 20.0082C10.5643 19.4808 10.8017 18.8795 10.9494 18.2044C11.097 17.5188 11.1709 16.7962 11.1709 16.0367V15.7044Z" fill="black"/>
<path d="M24.7386 30.9728V7.27024H28.2196L28.362 9.02657C28.5941 8.74176 28.8473 8.48332 29.1215 8.25125C29.3958 8.01918 29.6911 7.81876 30.0076 7.64999C30.419 7.42847 30.8726 7.25969 31.3684 7.14366C31.8641 7.01707 32.3916 6.95378 32.9506 6.95378C34.0477 6.95378 35.0129 7.16475 35.8462 7.58669C36.6901 8.00864 37.3968 8.60463 37.9665 9.37467C38.5255 10.1447 38.9527 11.0677 39.2481 12.1437C39.5435 13.2091 39.6911 14.3852 39.6911 15.6721V16.0044C39.6911 17.2386 39.5435 18.3884 39.2481 19.4538C38.9633 20.5192 38.5361 21.4369 37.9665 22.2069C37.3968 22.9875 36.6954 23.5994 35.862 24.0424C35.0287 24.4854 34.0741 24.7069 32.9981 24.7069C32.3863 24.7069 31.8219 24.6437 31.3051 24.5171C30.7987 24.3905 30.3293 24.2059 29.8968 23.9633C29.6437 23.8156 29.4011 23.6468 29.169 23.4569C28.9369 23.2671 28.7207 23.0614 28.5203 22.8399V30.9728H24.7386ZM35.9095 15.6721C35.9095 14.9021 35.8304 14.1795 35.6722 13.5044C35.5245 12.8188 35.2924 12.2228 34.976 11.7164C34.6489 11.2101 34.2323 10.8093 33.726 10.5139C33.2196 10.2186 32.6131 10.0709 31.9063 10.0709C31.516 10.0709 31.1521 10.1131 30.8146 10.1975C30.477 10.2818 30.1764 10.4031 29.9127 10.5614C29.6068 10.7302 29.3378 10.9411 29.1057 11.1943C28.8842 11.4475 28.689 11.7323 28.5203 12.0487V19.6595C28.6679 19.9548 28.8473 20.2238 29.0582 20.4664C29.2692 20.7091 29.5118 20.92 29.7861 21.0994C30.0709 21.2681 30.3926 21.4053 30.7513 21.5107C31.1099 21.6057 31.5055 21.6532 31.938 21.6532C32.6447 21.6532 33.246 21.5055 33.7418 21.2101C34.2481 20.9042 34.6595 20.4928 34.976 19.9759C35.303 19.4485 35.5403 18.8472 35.688 18.1721C35.8357 17.4865 35.9095 16.7639 35.9095 16.0044V15.6721Z" fill="black"/>
<path d="M21.5153 5.29359C22.8417 3.96718 22.9754 2.25137 23.015 0.515028C23.0215 0.228194 22.7869 -0.00641045 22.5001 0.000133668C20.7637 0.0397484 19.0479 0.17343 17.7215 1.49984C16.2615 2.9599 16.7124 4.42602 17.6507 5.36438C18.5891 6.30274 20.0552 6.75366 21.5153 5.29359Z" fill="black"/>
<path d="M17.4684 9.13243C17.4684 8.89511 17.6332 8.68964 17.8648 8.63816L21.1003 7.85053C21.4165 7.78026 21.7165 8.02088 21.7165 8.34481V24.4225C21.7165 24.7021 21.4898 24.9288 21.2101 24.9288H17.9747C17.695 24.9288 17.4684 24.7021 17.4684 24.4225V9.13243Z" fill="black"/>
</svg>
