<svg width="320" height="160" viewBox="0 0 320 160" fill="none" xmlns="http://www.w3.org/2000/svg">
<path d="M25 10C59.4537 10 80.3407 26.5336 80.9854 54.1758L81.001 55.501V58.6768C89.8892 45.4384 106.895 38.001 130.003 38.001V83.502C130.003 109.991 111.781 126.608 80.9961 128.761C80.997 128.842 81 128.923 81 129.004L80.9746 130.084C80.4119 141.179 71.2371 150.001 60.002 150.002L58.9209 149.977C48.1826 149.433 39.5729 140.822 39.0283 130.084L39 129.004C39 117.406 48.4037 108.002 60.002 108.002L61.082 108.03C66.0366 108.282 70.537 110.251 74.002 113.354V100.76C43.2198 98.6053 25.0001 81.9892 25 55.501V10ZM60.002 115.003C52.2698 115.003 46.001 121.272 46.001 129.004C46.0016 136.736 52.2702 143.004 60.002 143.004C67.7334 143.003 74.0016 136.734 74.002 129.003C74.0019 121.271 67.7335 115.004 60.002 115.003ZM123.002 45.2607C110.029 46.2419 100.113 49.9772 93.29 55.5205C85.4735 61.872 81.002 71.1594 81.002 83.502V121.743C93.9749 120.762 103.889 117.026 110.712 111.482C118.529 105.131 123.002 95.845 123.002 83.502V45.2607ZM32 55.501C32 67.8441 36.4729 77.1309 44.29 83.4824C51.1126 89.0258 61.0271 92.7609 74 93.7422V55.501C73.9999 43.1586 69.5292 33.8719 61.7129 27.5205C54.8902 21.977 44.9733 18.2409 32 17.2598V55.501Z" fill="#00A581"/>
<path d="M155 130V126.898L157.902 126.381C159.902 126.036 161.192 125.45 161.772 124.623C162.417 123.864 162.739 122.416 162.739 120.279V63.9193C162.739 61.7132 162.288 60.162 161.385 59.2658C160.482 58.3006 158.418 57.6112 155.193 57.1975V54.6122L169.802 50.062H171.156V57.6112H171.737C173.542 55.7497 175.316 54.233 177.057 53.061C178.799 51.889 180.572 51.0272 182.378 50.4757C184.184 49.9242 186.119 49.6484 188.183 49.6484C192.633 49.6484 196.535 50.7859 199.889 53.061C203.307 55.2671 205.951 58.3351 207.822 62.2647C209.757 66.1944 210.724 70.779 210.724 76.0186C210.724 81.7408 209.531 86.8425 207.144 91.3237C204.823 95.736 201.63 99.2175 197.567 101.768C193.504 104.25 188.892 105.491 183.733 105.491C181.54 105.491 179.411 105.215 177.348 104.664C175.284 104.181 173.317 103.457 171.446 102.492V119.245C171.446 121.589 171.833 123.278 172.607 124.312C173.381 125.346 174.768 126.001 176.767 126.277L181.121 126.898V130H155ZM185.184 101.562C190.343 101.562 194.374 99.7001 197.277 95.9773C200.179 92.1855 201.63 86.8769 201.63 80.0517C201.63 75.2947 200.921 71.1582 199.502 67.6422C198.147 64.0572 196.18 61.2996 193.6 59.3692C191.021 57.3699 187.925 56.3702 184.313 56.3702C181.927 56.3702 179.637 56.8183 177.444 57.7146C175.252 58.6108 173.252 59.9552 171.446 61.7477V85.5326C171.446 88.8418 171.962 91.7029 172.994 94.1158C174.026 96.4598 175.542 98.2868 177.541 99.5967C179.605 100.907 182.153 101.562 185.184 101.562Z" fill="black"/>
<path d="M214.402 104.457V101.355L217.305 100.838C219.24 100.493 220.53 99.9414 221.174 99.183C221.819 98.3557 222.142 96.8735 222.142 94.7363V63.9193C222.142 61.7132 221.69 60.162 220.788 59.2658C219.885 58.3006 217.821 57.6112 214.596 57.1975V54.6122L229.494 50.062H230.849V94.7363C230.849 96.8735 231.171 98.3557 231.816 99.183C232.461 99.9414 233.751 100.493 235.686 100.838L238.588 101.355V104.457H214.402ZM225.528 42.0993C223.916 42.0993 222.561 41.5477 221.465 40.4447C220.368 39.2727 219.82 37.7904 219.82 35.9979C219.82 34.2054 220.368 32.7577 221.465 31.6546C222.561 30.5515 223.916 30 225.528 30C227.076 30 228.398 30.5515 229.494 31.6546C230.591 32.7577 231.139 34.2054 231.139 35.9979C231.139 37.7904 230.591 39.2727 229.494 40.4447C228.398 41.5477 227.076 42.0993 225.528 42.0993Z" fill="black"/>
<path d="M239.276 130V126.898L242.178 126.381C244.178 126.036 245.468 125.45 246.048 124.623C246.693 123.864 247.015 122.416 247.015 120.279V63.9193C247.015 61.7132 246.564 60.162 245.661 59.2658C244.758 58.3006 242.694 57.6112 239.47 57.1975V54.6122L254.078 50.062H255.432V57.6112H256.013C257.818 55.7497 259.592 54.233 261.333 53.061C263.075 51.889 264.848 51.0272 266.654 50.4757C268.46 49.9242 270.395 49.6484 272.459 49.6484C276.909 49.6484 280.811 50.7859 284.165 53.061C287.583 55.2671 290.227 58.3351 292.098 62.2647C294.033 66.1944 295 70.779 295 76.0186C295 81.7408 293.807 86.8425 291.421 91.3237C289.099 95.736 285.906 99.2175 281.843 101.768C277.78 104.25 273.168 105.491 268.009 105.491C265.816 105.491 263.688 105.215 261.624 104.664C259.56 104.181 257.593 103.457 255.722 102.492V119.245C255.722 121.589 256.109 123.278 256.883 124.312C257.657 125.346 259.044 126.001 261.043 126.277L265.397 126.898V130H239.276ZM269.46 101.562C274.619 101.562 278.65 99.7001 281.553 95.9773C284.455 92.1855 285.906 86.8769 285.906 80.0517C285.906 75.2947 285.197 71.1582 283.778 67.6422C282.423 64.0572 280.456 61.2996 277.876 59.3692C275.297 57.3699 272.201 56.3702 268.589 56.3702C266.203 56.3702 263.913 56.8183 261.72 57.7146C259.528 58.6108 257.528 59.9552 255.722 61.7477V85.5326C255.722 88.8418 256.238 91.7029 257.27 94.1158C258.302 96.4598 259.818 98.2868 261.817 99.5967C263.881 100.907 266.429 101.562 269.46 101.562Z" fill="black"/>
</svg>
