<svg width="190" height="160" viewBox="0 0 190 160" fill="none" xmlns="http://www.w3.org/2000/svg">
<path d="M25 130V126.898L27.9023 126.381C29.9016 126.036 31.1916 125.45 31.772 124.623C32.417 123.864 32.7394 122.416 32.7394 120.279V63.9193C32.7394 61.7132 32.288 60.162 31.385 59.2658C30.4821 58.3006 28.4183 57.6112 25.1935 57.1975V54.6122L39.8017 50.062H41.1561V57.6112H41.7365C43.5424 55.7497 45.316 54.233 47.0574 53.061C48.7988 51.889 50.5724 51.0272 52.3783 50.4757C54.1841 49.9242 56.119 49.6484 58.1829 49.6484C62.633 49.6484 66.535 50.7859 69.8888 53.061C73.307 55.2671 75.9513 58.3351 77.8217 62.2647C79.7565 66.1944 80.724 70.779 80.724 76.0186C80.724 81.7408 79.5308 86.8425 77.1445 91.3237C74.8227 95.736 71.6301 99.2175 67.5669 101.768C63.5037 104.25 58.8923 105.491 53.7327 105.491C51.5398 105.491 49.4115 105.215 47.3476 104.664C45.2838 104.181 43.3167 103.457 41.4463 102.492V119.245C41.4463 121.589 41.8333 123.278 42.6072 124.312C43.3812 125.346 44.7678 126.001 46.7672 126.277L51.1206 126.898V130H25ZM55.1838 101.562C60.3435 101.562 64.3744 99.7001 67.2767 95.9773C70.179 92.1855 71.6301 86.8769 71.6301 80.0517C71.6301 75.2947 70.9207 71.1582 69.5018 67.6422C68.1474 64.0572 66.1803 61.2996 63.6005 59.3692C61.0207 57.3699 57.9249 56.3702 54.3131 56.3702C51.9268 56.3702 49.6372 56.8183 47.4444 57.7146C45.2515 58.6108 43.2522 59.9552 41.4463 61.7477V85.5326C41.4463 88.8418 41.9623 91.7029 42.9942 94.1158C44.0261 96.4598 45.5418 98.2868 47.5411 99.5967C49.605 100.907 52.1525 101.562 55.1838 101.562Z" fill="black"/>
<path d="M84.4025 104.457V101.355L87.3048 100.838C89.2396 100.493 90.5295 99.9414 91.1745 99.183C91.8195 98.3557 92.1419 96.8735 92.1419 94.7363V63.9193C92.1419 61.7132 91.6905 60.162 90.7875 59.2658C89.8846 58.3006 87.8207 57.6112 84.596 57.1975V54.6122L99.4944 50.062H100.849V94.7363C100.849 96.8735 101.171 98.3557 101.816 99.183C102.461 99.9414 103.751 100.493 105.686 100.838L108.588 101.355V104.457H84.4025ZM95.5279 42.0993C93.9155 42.0993 92.5611 41.5477 91.4647 40.4447C90.3683 39.2727 89.8201 37.7904 89.8201 35.9979C89.8201 34.2054 90.3683 32.7577 91.4647 31.6546C92.5611 30.5515 93.9155 30 95.5279 30C97.0758 30 98.398 30.5515 99.4944 31.6546C100.591 32.7577 101.139 34.2054 101.139 35.9979C101.139 37.7904 100.591 39.2727 99.4944 40.4447C98.398 41.5477 97.0758 42.0993 95.5279 42.0993Z" fill="black"/>
<path d="M109.276 130V126.898L112.178 126.381C114.178 126.036 115.468 125.45 116.048 124.623C116.693 123.864 117.015 122.416 117.015 120.279V63.9193C117.015 61.7132 116.564 60.162 115.661 59.2658C114.758 58.3006 112.694 57.6112 109.47 57.1975V54.6122L124.078 50.062H125.432V57.6112H126.013C127.818 55.7497 129.592 54.233 131.333 53.061C133.075 51.889 134.848 51.0272 136.654 50.4757C138.46 49.9242 140.395 49.6484 142.459 49.6484C146.909 49.6484 150.811 50.7859 154.165 53.061C157.583 55.2671 160.227 58.3351 162.098 62.2647C164.033 66.1944 165 70.779 165 76.0186C165 81.7408 163.807 86.8425 161.421 91.3237C159.099 95.736 155.906 99.2175 151.843 101.768C147.78 104.25 143.168 105.491 138.009 105.491C135.816 105.491 133.688 105.215 131.624 104.664C129.56 104.181 127.593 103.457 125.722 102.492V119.245C125.722 121.589 126.109 123.278 126.883 124.312C127.657 125.346 129.044 126.001 131.043 126.277L135.397 126.898V130H109.276ZM139.46 101.562C144.619 101.562 148.65 99.7001 151.553 95.9773C154.455 92.1855 155.906 86.8769 155.906 80.0517C155.906 75.2947 155.197 71.1582 153.778 67.6422C152.423 64.0572 150.456 61.2996 147.876 59.3692C145.297 57.3699 142.201 56.3702 138.589 56.3702C136.203 56.3702 133.913 56.8183 131.72 57.7146C129.528 58.6108 127.528 59.9552 125.722 61.7477V85.5326C125.722 88.8418 126.238 91.7029 127.27 94.1158C128.302 96.4598 129.818 98.2868 131.817 99.5967C133.881 100.907 136.429 101.562 139.46 101.562Z" fill="black"/>
</svg>
