<svg width="119" height="40" viewBox="0 0 119 40" fill="none" xmlns="http://www.w3.org/2000/svg">
<mask id="mask0_575_54878" style="mask-type:luminance" maskUnits="userSpaceOnUse" x="114" y="22" width="4" height="4">
<path fill-rule="evenodd" clip-rule="evenodd" d="M114.776 22.5469H117.831V25.3831H114.776V22.5469Z" fill="white"/>
</mask>
<g mask="url(#mask0_575_54878)">
<path fill-rule="evenodd" clip-rule="evenodd" d="M116.455 23.9077C116.612 23.9077 116.709 23.805 116.709 23.6828C116.709 23.5487 116.612 23.4579 116.455 23.4579H116.038V23.9077H116.455ZM115.77 23.316C115.77 23.2764 115.805 23.2409 115.851 23.2409H116.455C116.718 23.2409 116.977 23.3869 116.977 23.6829C116.977 23.9787 116.752 24.0853 116.633 24.1128C116.718 24.2666 116.803 24.4246 116.888 24.5781C116.918 24.6257 116.875 24.6847 116.816 24.6847H116.671C116.637 24.6847 116.607 24.6532 116.595 24.6296L116.357 24.1366H116.043V24.6097C116.043 24.6491 116.008 24.6847 115.962 24.6847H115.851C115.805 24.6847 115.77 24.6491 115.77 24.6097V23.316ZM116.302 25.1464C117.007 25.1464 117.572 24.6177 117.572 23.9668C117.572 23.312 117.007 22.7874 116.302 22.7874C115.601 22.7874 115.031 23.312 115.031 23.9668C115.031 24.6177 115.601 25.1464 116.302 25.1464V25.1464ZM116.302 22.5469C117.143 22.5469 117.831 23.1859 117.831 23.9668C117.831 24.748 117.143 25.3831 116.302 25.3831C115.46 25.3831 114.776 24.748 114.776 23.9668C114.776 23.1859 115.46 22.5469 116.302 22.5469V22.5469Z" fill="#1D1D1D"/>
</g>
<path fill-rule="evenodd" clip-rule="evenodd" d="M57.9633 19.9165C57.9633 17.2382 56.2848 15.3928 53.7912 15.3928C51.2977 15.3928 49.6029 17.2382 49.6029 19.9165C49.6029 22.5933 51.2814 24.4403 53.7912 24.4403C56.2848 24.4403 57.9633 22.5933 57.9633 19.9165M59.7383 19.9164C59.7383 23.078 57.3929 25.4992 53.7912 25.4992C50.1732 25.4992 47.8262 23.078 47.8262 19.9164C47.8262 16.7534 50.1732 14.332 53.7912 14.332C57.3929 14.332 59.7383 16.7534 59.7383 19.9164" fill="#1D1D1D"/>
<path fill-rule="evenodd" clip-rule="evenodd" d="M67.7987 17.7067C67.7987 16.2845 67.0819 15.4818 65.3215 15.4818H63.3657V19.9306H65.3215C67.0819 19.9306 67.7987 19.0681 67.7987 17.7067V17.7067ZM65.745 14.4839C68.2061 14.4839 69.5752 15.7243 69.5752 17.7068C69.5752 19.6888 68.1404 20.9449 65.6806 20.9449H63.3655V25.3476H61.6387V14.4839H65.745Z" fill="#1D1D1D"/>
<path fill-rule="evenodd" clip-rule="evenodd" d="M74.4959 25.3476V15.573H70.5029L70.5355 14.4839H80.168L80.1843 15.573H76.207V25.3476H74.4959Z" fill="#1D1D1D"/>
<path fill-rule="evenodd" clip-rule="evenodd" d="M82.5824 20.9321H86.477L84.5943 16.2021H84.5136L82.5824 20.9321ZM86.9154 22.0322H82.1268L80.7638 25.3475H79.3037L83.8641 14.4834H85.5355L90.0638 25.3475H88.2288L86.9154 22.0322Z" fill="#1D1D1D"/>
<path fill-rule="evenodd" clip-rule="evenodd" d="M94.2559 24.4437H94.3056L98.573 14.4839H99.2708L94.5974 25.3478H93.85L89.1768 14.4839H90.0042L94.2559 24.4437Z" fill="#1D1D1D"/>
<path fill-rule="evenodd" clip-rule="evenodd" d="M101.132 25.3476H101.914V14.4839H101.132V25.3476Z" fill="#1D1D1D"/>
<path fill-rule="evenodd" clip-rule="evenodd" d="M106.436 20.8219H111.165L108.841 15.3746H108.777L106.436 20.8219ZM111.393 21.3644H106.192L104.486 25.3478H103.787L108.5 14.4839H109.215L113.912 25.3478H113.099L111.393 21.3644Z" fill="#1D1D1D"/>
<path fill-rule="evenodd" clip-rule="evenodd" d="M1.47223 15.5108C1.47223 15.5108 2.23155 15.6996 3.37022 15.9835C3.52742 16.0212 3.69113 16.0622 3.86215 16.1043C4.07762 16.2379 4.33248 16.3862 4.62496 16.5383C5.08847 16.7809 5.63867 17.0306 6.23952 17.2586C6.53947 17.3732 6.8507 17.4866 7.17224 17.5848C7.49204 17.6892 7.81867 17.7853 8.14879 17.8711C8.47843 17.9593 8.81078 18.0356 9.14026 18.1036C9.46927 18.1749 9.79542 18.2315 10.1135 18.2799C10.7508 18.3776 11.3534 18.432 11.8792 18.45C12.4035 18.4697 12.85 18.4545 13.167 18.4287C13.4817 18.401 13.6687 18.3691 13.6687 18.3691C13.6687 18.3691 13.5244 18.2501 13.2634 18.0705C13.0021 17.893 12.6238 17.6595 12.1603 17.4186C11.6961 17.1749 11.1459 16.925 10.5457 16.6961C10.2451 16.5815 9.93325 16.4697 9.61297 16.3693C9.29302 16.2655 8.96702 16.1688 8.6369 16.0819C8.30678 15.9948 7.97444 15.915 7.64495 15.8483C7.31594 15.7752 6.99027 15.7208 6.67222 15.672C6.03548 15.5732 5.43272 15.5186 4.90777 15.5008C4.57526 15.4883 4.28166 15.4913 4.02522 15.5013C3.85643 15.4536 3.69335 15.4075 3.53885 15.3638C2.40844 15.0483 1.65515 14.8376 1.65515 14.8376L1.64499 14.8354C1.46429 14.7899 1.36171 14.9269 1.31487 15.1133C1.26644 15.2991 1.28978 15.4659 1.47223 15.5108" fill="#1D1D1D"/>
<path fill-rule="evenodd" clip-rule="evenodd" d="M7.35889 7.94369C7.49227 8.19639 7.65868 8.48552 7.86113 8.80217C8.16728 9.28223 8.5498 9.81437 8.99282 10.3545C9.21401 10.6234 9.44663 10.8976 9.69641 11.1635C9.93967 11.437 10.2033 11.698 10.4619 11.9614C10.7304 12.2169 10.9967 12.4739 11.2738 12.7143C11.5447 12.9579 11.8234 13.1876 12.0989 13.4055C12.6467 13.8405 13.1877 14.2167 13.6745 14.5177C14.1598 14.8186 14.5914 15.0438 14.9037 15.1897C15.2195 15.3356 15.4123 15.4053 15.4123 15.4053C15.4123 15.4053 15.3416 15.215 15.1951 14.9055C15.0457 14.5962 14.8165 14.1718 14.5104 13.6929C14.2031 13.2145 13.8211 12.6829 13.3787 12.1427C13.1586 11.8722 12.9249 11.5987 12.6764 11.3315C12.4334 11.0586 12.1713 10.797 11.9107 10.5326C11.6433 10.2777 11.3788 10.0183 11.1017 9.77856C10.8303 9.53321 10.5526 9.30413 10.2779 9.0874C9.73102 8.65065 9.18829 8.27504 8.70144 7.97403C8.37989 7.7759 8.08582 7.61359 7.83096 7.48161C7.20264 6.84611 6.80011 6.43908 6.80011 6.43908L6.79567 6.43282C6.66054 6.30382 6.50143 6.37231 6.36519 6.51038C6.22832 6.64783 6.16623 6.80342 6.29961 6.93259C6.29961 6.93259 6.71294 7.32665 7.35889 7.94369" fill="#1D1D1D"/>
<path fill-rule="evenodd" clip-rule="evenodd" d="M10.6089 4.46857C10.6809 4.75379 10.772 5.0828 10.8928 5.44777C11.081 6.0215 11.3335 6.67279 11.6438 7.34879C11.7987 7.68561 11.9624 8.0326 12.1466 8.37615C12.3223 8.72267 12.5211 9.0645 12.7167 9.40758C12.9214 9.74566 13.1227 10.0853 13.3393 10.4098C13.5513 10.7364 13.7709 11.0515 13.9921 11.3519C14.4322 11.9538 14.8775 12.4944 15.2884 12.943C15.6967 13.3927 16.0717 13.748 16.3466 13.9883C16.623 14.2287 16.7993 14.3561 16.7993 14.3561C16.7993 14.3561 16.7748 14.1428 16.7029 13.7862C16.6276 13.4313 16.5022 12.9346 16.3118 12.3613C16.1243 11.7869 15.8712 11.1352 15.5626 10.4592C15.4088 10.1211 15.2406 9.77646 15.0598 9.43166C14.883 9.0842 14.6876 8.74237 14.4915 8.39929C14.2861 8.06122 14.0861 7.72095 13.8688 7.39648C13.6591 7.06919 13.4373 6.75535 13.2178 6.45387C12.7783 5.85199 12.3329 5.31016 11.9219 4.86169C11.6625 4.57756 11.4197 4.3355 11.2053 4.13112C10.9773 3.73081 10.8444 3.495 10.8444 3.495L10.8387 3.4878C10.7441 3.33112 10.5753 3.35364 10.4095 3.45074L10.4043 3.45293C10.2372 3.55113 10.1346 3.68593 10.2299 3.84308C10.2299 3.84308 10.3707 4.07561 10.6089 4.46857" fill="#1D1D1D"/>
<path fill-rule="evenodd" clip-rule="evenodd" d="M3.31541 10.9048C3.31541 10.9048 3.9693 11.2646 4.9568 11.8075C5.14195 12.0034 5.36266 12.223 5.6226 12.4594C6.02973 12.8311 6.52229 13.233 7.07297 13.6266C7.34831 13.8231 7.63682 14.0219 7.93614 14.2094C8.2326 14.4031 8.54509 14.5817 8.85409 14.7646C9.16881 14.9365 9.48289 15.1116 9.80222 15.2694C10.1174 15.4299 10.435 15.5765 10.7462 15.7118C11.3682 15.9836 11.9681 16.2042 12.4983 16.3659C13.0274 16.5298 13.4867 16.6349 13.8157 16.6955C14.1452 16.7556 14.3426 16.774 14.3426 16.774C14.3426 16.774 14.2286 16.6141 14.0112 16.3614C13.7929 16.1127 13.4713 15.7729 13.062 15.4036C12.655 15.033 12.1612 14.6299 11.6122 14.2369C11.3369 14.0381 11.0484 13.8416 10.7497 13.6519C10.4526 13.4582 10.1414 13.2785 9.83286 13.0966C9.51814 12.9226 9.20359 12.7468 8.88537 12.5901C8.57129 12.4274 8.25197 12.283 7.94074 12.146C7.31988 11.8738 6.71951 11.6542 6.18931 11.4915C5.85236 11.3881 5.54797 11.3101 5.28343 11.25C4.31133 10.6785 3.66823 10.3007 3.66823 10.3007L3.66029 10.2962C3.49674 10.2069 3.36161 10.3124 3.26698 10.4815C3.17107 10.6488 3.15122 10.8155 3.31541 10.9048" fill="#1D1D1D"/>
<path fill-rule="evenodd" clip-rule="evenodd" d="M24.7435 11.9616C24.6625 11.9993 24.5736 12.0441 24.4757 12.1059C24.2206 12.2715 23.9567 12.5359 23.7765 12.848C23.5931 13.1575 23.4921 13.514 23.4745 13.8138C23.4659 13.9648 23.4727 14.0985 23.4864 14.1966L23.5082 14.314L23.5172 14.3561L23.5582 14.3426L23.6735 14.3023C23.7659 14.2646 23.8872 14.2046 24.0148 14.1226C24.2708 13.957 24.5349 13.6924 24.7143 13.3816C24.8996 13.0732 25.0017 12.7167 25.0193 12.4158C25.0251 12.299 25.0211 12.198 25.012 12.1104C25.2166 11.7821 25.4346 11.4327 25.6626 11.066C26.0469 10.4485 26.4534 9.7894 26.8621 9.13029C27.2664 8.47119 27.6727 7.81036 28.0543 7.19222C28.4326 6.57236 28.7867 5.9941 29.09 5.49777C29.6926 4.5045 30.094 3.84148 30.094 3.84148L30.0987 3.83304C30.1911 3.67197 30.082 3.5389 29.9122 3.44508C29.7412 3.35125 29.5729 3.33171 29.4811 3.49277C29.4811 3.49277 29.0986 4.16658 28.5262 5.17658C28.24 5.68354 27.9093 6.27416 27.552 6.907C27.199 7.5403 26.821 8.21614 26.443 8.89323C26.068 9.56986 25.691 10.2469 25.3387 10.8813C25.1307 11.261 24.9311 11.6219 24.7435 11.9616" fill="#1D1D1D"/>
<path fill-rule="evenodd" clip-rule="evenodd" d="M31.2834 13.4837C30.6243 13.8784 29.9669 14.2731 29.3489 14.6448C29.2207 14.6402 29.0667 14.6448 28.8957 14.6667C28.6801 14.6936 28.4414 14.7442 28.1996 14.8255C28.0787 14.866 27.9568 14.9109 27.8371 14.9675C27.7167 15.0198 27.5994 15.0804 27.4841 15.1461C27.3685 15.2118 27.2567 15.2831 27.15 15.3596C27.0422 15.4337 26.9407 15.515 26.8445 15.598C26.6528 15.7632 26.4875 15.9411 26.3576 16.113C26.2263 16.2825 26.1295 16.4452 26.0674 16.5689C26.0046 16.6912 25.9756 16.7743 25.9756 16.7743C25.9756 16.7743 26.0634 16.7911 26.2031 16.7972C26.3422 16.8063 26.5326 16.8058 26.7492 16.7782C26.9642 16.7519 27.2008 16.7001 27.4436 16.6199C27.5644 16.5794 27.6872 16.5334 27.8063 16.4784C27.9265 16.4262 28.0462 16.3661 28.1608 16.3011C28.2771 16.2354 28.3888 16.1647 28.4948 16.0876C28.6032 16.0148 28.7047 15.9322 28.7998 15.8496C28.9926 15.6851 29.1579 15.5067 29.2881 15.3366C29.3911 15.2035 29.4715 15.0754 29.5313 14.966C30.1677 14.6235 30.8461 14.2603 31.5233 13.8953C32.2104 13.5247 32.8967 13.1525 33.5404 12.8049C34.1841 12.4546 34.7832 12.1284 35.2974 11.8471C36.3232 11.284 37.0068 10.9084 37.0068 10.9084L37.0153 10.9034C37.1771 10.8085 37.1503 10.6399 37.0499 10.475C36.9507 10.31 36.8151 10.2094 36.6544 10.3042C36.6544 10.3042 35.9811 10.6989 34.9714 11.2925C34.4669 11.5901 33.8807 11.9375 33.2524 12.3109C32.6226 12.6848 31.9533 13.0845 31.2834 13.4837" fill="#1D1D1D"/>
<path fill-rule="evenodd" clip-rule="evenodd" d="M27.585 12.5146C27.434 12.6712 27.2868 12.8235 27.142 12.9733C27.0428 12.9973 26.927 13.0328 26.8 13.0816C26.4626 13.2125 26.077 13.454 25.7664 13.7672C25.4493 14.0754 25.207 14.4549 25.0732 14.788C25.0065 14.9551 24.963 15.1068 24.9419 15.2195C24.9266 15.2741 24.926 15.3246 24.9191 15.3554L24.9141 15.4055L24.963 15.3981C24.9955 15.3931 25.047 15.3914 25.101 15.378C25.2162 15.355 25.3707 15.3129 25.5406 15.246C25.8781 15.1146 26.2623 14.8732 26.5764 14.5622C26.8907 14.255 27.1358 13.8766 27.2686 13.5426C27.316 13.423 27.3513 13.3118 27.3742 13.2164C27.5287 13.0721 27.6865 12.9245 27.8483 12.7734C28.3809 12.2749 28.947 11.7421 29.5142 11.2099C30.0793 10.6758 30.6449 10.1414 31.1744 9.64223C31.7035 9.13871 32.1961 8.67053 32.6197 8.2685C33.4624 7.46225 34.0239 6.92433 34.0239 6.92433L34.0302 6.9176C34.1608 6.78562 34.0912 6.63019 33.951 6.49602C33.8113 6.3617 33.6539 6.29946 33.5223 6.43144C33.5223 6.43144 32.9765 6.98562 32.1591 7.81486C31.7497 8.23128 31.2748 8.7176 30.7657 9.23801C30.2554 9.76013 29.7137 10.3171 29.1728 10.8729C28.6324 11.4322 28.0908 11.9908 27.585 12.5146" fill="#1D1D1D"/>
<path fill-rule="evenodd" clip-rule="evenodd" d="M34.8411 15.9171C34.1359 16.1193 33.3837 16.3348 32.633 16.5499C32.0965 16.706 31.5625 16.8609 31.0442 17.0118C30.9106 16.9793 30.7471 16.9491 30.5646 16.9312C30.0714 16.8789 29.4444 16.9193 28.8486 17.0799C28.5504 17.1574 28.2619 17.2652 27.9951 17.3881C27.7284 17.511 27.49 17.6531 27.2876 17.7957C27.0875 17.9377 26.9266 18.0821 26.8185 18.1939C26.7607 18.2444 26.7202 18.2977 26.6913 18.3279L26.6484 18.3801L26.7124 18.4043C26.7534 18.4161 26.8144 18.4425 26.8896 18.4594C27.0419 18.5025 27.2517 18.5487 27.4986 18.5721C27.7449 18.5975 28.0253 18.6025 28.3184 18.5778C28.612 18.5548 28.9164 18.5047 29.2145 18.4256C29.8109 18.2728 30.3747 17.9995 30.7755 17.7121C30.9335 17.6009 31.0653 17.488 31.1683 17.3903C31.6873 17.2669 32.2219 17.1383 32.7578 17.0103C33.5178 16.825 34.2777 16.6408 34.9899 16.4678C35.7019 16.2927 36.3672 16.131 36.9373 15.9901C38.074 15.7049 38.8346 15.5168 38.8346 15.5168L38.8426 15.5146C39.0234 15.4641 39.0434 15.295 38.9886 15.1091C38.9361 14.924 38.8307 14.7926 38.6504 14.8436C38.6504 14.8436 37.8979 15.0536 36.768 15.3703C36.2048 15.5308 35.5452 15.7172 34.8411 15.9171" fill="#1D1D1D"/>
<path fill-rule="evenodd" clip-rule="evenodd" d="M3.81144 20.3861C4.05089 20.4646 4.3348 20.5466 4.65857 20.623C5.14891 20.7387 5.71848 20.8402 6.33077 20.9076C6.63691 20.9407 6.95337 20.9717 7.2754 20.9845C7.59536 21.0042 7.92198 21.0126 8.24861 21.0126C8.57476 21.0126 8.90139 21.0018 9.22246 20.9828C9.54337 20.9678 9.8592 20.9401 10.166 20.9054C10.7765 20.8369 11.3478 20.7359 11.8375 20.6201C12.3279 20.5057 12.7348 20.3765 13.0205 20.271C13.3062 20.1643 13.471 20.085 13.471 20.085C13.471 20.085 13.3062 20.0076 13.0205 19.8999C12.7348 19.7948 12.3279 19.6658 11.8375 19.5512C11.3478 19.435 10.7765 19.3338 10.166 19.266C9.8592 19.2311 9.54337 19.2025 9.22246 19.1879C8.90139 19.1689 8.57476 19.1587 8.24861 19.1587C7.92198 19.1587 7.59536 19.1671 7.2754 19.1868C6.95337 19.2003 6.63691 19.2306 6.33077 19.2631C5.71848 19.3316 5.14891 19.4333 4.65857 19.5484C4.34449 19.6225 4.06867 19.7022 3.83192 19.7779C3.50132 19.7725 3.18613 19.7662 2.89697 19.7606C1.72194 19.7432 0.939277 19.7326 0.939277 19.7326H0.929591C0.741427 19.7348 0.680452 19.8932 0.682675 20.0857C0.684422 20.2788 0.75159 20.4316 0.938642 20.4292C0.938642 20.4292 1.72194 20.4181 2.89697 20.4023C3.18025 20.3978 3.48655 20.3917 3.81144 20.3861" fill="#1D1D1D"/>
<path fill-rule="evenodd" clip-rule="evenodd" d="M7.12114 27.8266C7.34059 27.785 7.59481 27.7284 7.87586 27.6508C8.30634 27.5335 8.78921 27.3684 9.2886 27.1579C9.53837 27.0518 9.79323 26.9401 10.0457 26.811C10.3006 26.6887 10.5497 26.5482 10.803 26.4113C11.048 26.2652 11.296 26.1221 11.5315 25.9648C11.7705 25.8133 11.9972 25.6533 12.214 25.4921C12.649 25.1711 13.0366 24.8414 13.3553 24.5343C13.6734 24.2283 13.9231 23.9459 14.0908 23.7365C14.2583 23.5254 14.3444 23.3906 14.3444 23.3906C14.3444 23.3906 14.1831 23.398 13.9139 23.4344C13.6461 23.4727 13.2721 23.5445 12.8445 23.6635C12.4158 23.7808 11.9312 23.947 11.4322 24.1565C11.1802 24.2621 10.9271 24.3761 10.6735 24.5018C10.4187 24.6247 10.1683 24.764 9.91692 24.9021C9.67064 25.0475 9.42214 25.1902 9.18666 25.3462C8.94895 25.4966 8.72141 25.6577 8.50371 25.8189C8.06927 26.139 7.68087 26.469 7.36282 26.7762C7.15306 26.9783 6.97744 27.1681 6.83024 27.3353L6.78356 27.3601C6.14047 27.7098 5.54247 28.0372 5.02879 28.3168C4.00255 28.881 3.32023 29.2571 3.32023 29.2571L3.31166 29.2605C3.15081 29.3561 3.17653 29.5234 3.27688 29.6894C3.37708 29.8546 3.51284 29.955 3.67306 29.8596C3.67306 29.8596 4.34569 29.4649 5.35478 28.8721C5.85767 28.575 6.44439 28.2258 7.07494 27.8541L7.12114 27.8266Z" fill="#1D1D1D"/>
<path fill-rule="evenodd" clip-rule="evenodd" d="M37.0015 29.2539C37.0015 29.2539 36.3168 28.8789 35.2922 28.3152C34.7791 28.0345 34.1795 27.7088 33.5369 27.3585C32.8938 27.0098 32.2074 26.6387 31.5203 26.2677C31.4595 26.235 31.3966 26.2014 31.3363 26.1682C31.237 26.0358 31.1122 25.8858 30.9634 25.7287C30.7445 25.4979 30.4753 25.2525 30.1731 25.0167C30.0215 24.8999 29.8613 24.7815 29.6933 24.6736C29.5285 24.5603 29.3522 24.4592 29.1779 24.3554C28.9999 24.2588 28.8208 24.1606 28.6396 24.0758C28.4589 23.9876 28.2771 23.909 28.0962 23.8394C27.7388 23.6991 27.3871 23.5918 27.0763 23.5227C26.7644 23.4503 26.4909 23.4161 26.293 23.402C26.1966 23.3896 26.1147 23.3931 26.061 23.3896C26.0051 23.3896 25.9756 23.3907 25.9756 23.3907L26.017 23.4631C26.0485 23.5076 26.0861 23.5795 26.1436 23.6558C26.2558 23.8181 26.4231 24.0336 26.6425 24.2627C26.8591 24.4941 27.127 24.7405 27.432 24.974C27.5827 25.0932 27.7418 25.2094 27.9098 25.3182C28.0757 25.4322 28.2509 25.5343 28.4258 25.6383C28.6037 25.7359 28.782 25.8336 28.964 25.919C29.1442 26.0083 29.326 26.0846 29.5056 26.1554C29.8648 26.2974 30.2149 26.4029 30.5261 26.4732C30.7399 26.5219 30.9355 26.5529 31.0997 26.572C31.1613 26.6084 31.2194 26.6438 31.2804 26.6797C31.9497 27.0794 32.619 27.4786 33.2478 27.8536C33.8766 28.2248 34.4639 28.5729 34.9678 28.871C35.9753 29.4627 36.6476 29.8575 36.6476 29.8575L36.6565 29.8631C36.8195 29.9523 36.9542 29.8456 37.0499 29.6778C37.1451 29.5105 37.1668 29.3443 37.0015 29.2539" fill="#1D1D1D"/>
<path fill-rule="evenodd" clip-rule="evenodd" d="M32.6147 31.8948C32.1911 31.4929 31.6981 31.0246 31.1706 30.5215C30.6786 30.0584 30.1564 29.5649 29.6324 29.0696C29.5663 28.9075 29.4785 28.7211 29.3685 28.5189C29.2071 28.2241 29.0001 27.9003 28.7527 27.5774C28.6301 27.4168 28.4972 27.2523 28.3565 27.0958C28.2174 26.9352 28.0663 26.783 27.9164 26.6285C27.759 26.4814 27.6039 26.3327 27.4409 26.1957C27.2812 26.0565 27.1159 25.9256 26.9517 25.8055C26.6249 25.5624 26.2954 25.3574 25.9968 25.1997C25.6979 25.0396 25.4294 24.9284 25.2317 24.8595C25.1365 24.8201 25.0521 24.7999 24.9974 24.7814C24.9415 24.7669 24.9111 24.7583 24.9111 24.7583C24.9111 24.7583 24.9186 24.7886 24.9342 24.8449C24.9529 24.8965 24.974 24.9802 25.0134 25.0745C25.0823 25.2687 25.1963 25.5337 25.3572 25.8279C25.519 26.122 25.7254 26.446 25.9734 26.7683C26.0947 26.9306 26.2265 27.0929 26.3679 27.2506C26.5065 27.4118 26.6575 27.5639 26.8091 27.7183C26.9643 27.8665 27.1194 28.0169 27.2836 28.1535C27.4409 28.2926 27.6085 28.4218 27.7715 28.5442C28.0971 28.7868 28.4265 28.9916 28.7254 29.15C28.9312 29.2588 29.1216 29.3447 29.2857 29.4122C29.7886 29.9281 30.2893 30.4418 30.7606 30.9258C31.2703 31.4468 31.7463 31.9319 32.1541 32.3478C32.9715 33.1783 33.516 33.7314 33.516 33.7314L33.5241 33.7381C33.6584 33.8667 33.8164 33.7986 33.9527 33.6612C34.0889 33.5225 34.1529 33.368 34.0178 33.239C34.0178 33.239 33.4555 32.7011 32.6147 31.8948" fill="#1D1D1D"/>
<path fill-rule="evenodd" clip-rule="evenodd" d="M5.00307 24.3859C5.23792 24.3994 5.50929 24.4084 5.81607 24.4017C6.28989 24.3926 6.83247 24.35 7.40379 24.2663C7.68993 24.2236 7.98369 24.1765 8.27887 24.112C8.57485 24.0546 8.87179 23.9778 9.16824 23.9048C9.46359 23.8217 9.75782 23.742 10.0446 23.6449C10.3314 23.5539 10.6107 23.4522 10.8786 23.3473C11.4162 23.1384 11.9088 22.9076 12.3227 22.683C12.7372 22.4596 13.0752 22.2417 13.3078 22.0761C13.54 21.9095 13.6681 21.7966 13.6681 21.7966C13.6681 21.7966 13.4995 21.7629 13.2138 21.7326C12.9288 21.7027 12.5268 21.6808 12.0542 21.691C11.5817 21.7005 11.0377 21.7426 10.4647 21.8269C10.1791 21.8679 9.88597 21.9173 9.59237 21.9801C9.29432 22.0369 8.99786 22.1121 8.70141 22.1862C8.40495 22.2682 8.11135 22.3479 7.82506 22.4439C7.53781 22.5331 7.2585 22.6371 6.99047 22.7414C6.4517 22.9492 5.95961 23.1806 5.54629 23.4052C5.27778 23.5493 5.04627 23.6902 4.85191 23.8183C4.31663 23.9479 3.81772 24.0699 3.37486 24.1781C2.23683 24.4616 1.47798 24.6503 1.47798 24.6503L1.46766 24.6521C1.28807 24.7026 1.26822 24.8721 1.32237 25.0569C1.3754 25.2427 1.4802 25.374 1.65995 25.3235C1.65995 25.3235 2.41356 25.1141 3.54413 24.7992C3.9808 24.675 4.4751 24.5353 5.00307 24.3859" fill="#1D1D1D"/>
<path fill-rule="evenodd" clip-rule="evenodd" d="M29.0848 34.6657C28.782 34.1711 28.4279 33.5922 28.05 32.973C27.7445 32.4756 27.4223 31.9534 27.099 31.4257C27.0728 31.2483 27.0365 31.0427 26.9775 30.8143C26.8926 30.4762 26.7695 30.0934 26.6066 29.7026C26.525 29.5071 26.4366 29.3062 26.3346 29.1096C26.2382 28.9098 26.1253 28.7156 26.017 28.5207C25.8991 28.3298 25.7838 28.1362 25.6555 27.9544C25.5331 27.7691 25.4025 27.5944 25.2712 27.4271C25.0084 27.0931 24.7337 26.7966 24.4782 26.5541C24.2235 26.3115 23.9852 26.1245 23.8085 25.9994C23.7233 25.9342 23.6447 25.8898 23.5952 25.8562C23.5438 25.8252 23.5166 25.8096 23.5166 25.8096C23.5166 25.8096 23.5176 25.841 23.5182 25.9017C23.5228 25.9595 23.5228 26.0482 23.5365 26.1527C23.5574 26.3666 23.6036 26.6635 23.6903 27.0032C23.7737 27.3417 23.8967 27.7234 24.0598 28.1137C24.1419 28.3107 24.2304 28.5101 24.3312 28.7071C24.4258 28.9064 24.5381 29.1018 24.6488 29.2978C24.7656 29.4898 24.8796 29.6824 25.0084 29.8643C25.1281 30.049 25.261 30.2247 25.3909 30.3921C25.6539 30.7272 25.9275 31.0232 26.1846 31.2655C26.3573 31.4313 26.5233 31.5677 26.6681 31.6799C26.9674 32.2185 27.265 32.7512 27.5482 33.2576C27.9036 33.8898 28.2353 34.4804 28.5214 34.9875C29.0934 35.9969 29.4748 36.6701 29.4748 36.6701L29.4786 36.679C29.5756 36.8374 29.7455 36.8116 29.9143 36.7139C30.0812 36.615 30.1833 36.4802 30.0887 36.3231C30.0887 36.3231 29.6868 35.659 29.0848 34.6657" fill="#1D1D1D"/>
<path fill-rule="evenodd" clip-rule="evenodd" d="M39.4036 19.7322C39.4036 19.7322 38.6203 19.7429 37.4476 19.7602C36.8593 19.7715 36.1738 19.7828 35.439 19.7968C34.7065 19.8114 33.9236 19.8276 33.1419 19.8434C32.7675 19.853 32.3952 19.8614 32.0276 19.8703C31.8902 19.7996 31.719 19.7221 31.5206 19.6531C31.0051 19.465 30.3165 19.3369 29.6295 19.3419C29.2847 19.3415 28.9414 19.3746 28.6176 19.4279C28.296 19.4835 27.9956 19.5649 27.7373 19.657C27.4791 19.7485 27.2636 19.853 27.1137 19.9382C27.0389 19.9759 26.9797 20.0197 26.9386 20.0433L26.877 20.0847L26.9386 20.1269C26.9797 20.1516 27.0389 20.1948 27.1137 20.2314C27.2653 20.3166 27.4791 20.4211 27.7373 20.5127C27.9963 20.6042 28.2973 20.6844 28.6193 20.7394C28.9414 20.794 29.2858 20.8242 29.6307 20.8242C30.3182 20.8281 31.0058 20.7002 31.5217 20.511C31.7186 20.4419 31.8885 20.3643 32.0252 20.2949C32.394 20.3021 32.7669 20.3116 33.1419 20.32C33.9236 20.3352 34.7065 20.3515 35.4396 20.3666C36.1738 20.3796 36.8593 20.3914 37.4476 20.4015C38.6203 20.4178 39.4042 20.429 39.4042 20.429H39.4137C39.6014 20.4267 39.6637 20.2678 39.6613 20.0764C39.6589 19.8838 39.5913 19.7294 39.4036 19.7322" fill="#1D1D1D"/>
<path fill-rule="evenodd" clip-rule="evenodd" d="M38.8403 24.6539C38.8403 24.6539 38.0804 24.4641 36.9436 24.1817C36.371 24.0419 35.7081 23.8791 34.9954 23.704C34.2828 23.5321 33.5217 23.3474 32.7607 23.1645C32.5593 23.1151 32.357 23.0674 32.1541 23.0189C32.0296 22.9129 31.8742 22.7939 31.6911 22.6732C31.1934 22.3446 30.4984 22.0258 29.7664 21.8366C29.4021 21.7423 29.0287 21.6716 28.6717 21.6389C28.3154 21.6019 27.9738 21.5975 27.6753 21.6165C27.3765 21.6339 27.1216 21.6766 26.9385 21.7176C26.848 21.7349 26.7732 21.7603 26.7248 21.7726L26.6484 21.7962L26.7026 21.8556C26.7378 21.8894 26.7898 21.9488 26.8593 22.0073C26.9955 22.1335 27.1969 22.2969 27.4454 22.4592C27.6956 22.622 27.991 22.7865 28.3205 22.9302C28.6466 23.0778 29.0058 23.1986 29.3691 23.2974C30.0981 23.4935 30.8627 23.5613 31.4607 23.5204C31.6796 23.5063 31.8759 23.4805 32.0371 23.4502C32.2354 23.508 32.4356 23.5648 32.6363 23.6231C33.3884 23.8388 34.1396 24.0542 34.8462 24.2553C35.5514 24.4552 36.2092 24.6416 36.7736 24.8015C37.9046 25.1165 38.6579 25.3271 38.6579 25.3271L38.6669 25.3299C38.8476 25.3748 38.9502 25.2378 38.9988 25.0519C39.0468 24.8639 39.0222 24.6994 38.8403 24.6539" fill="#1D1D1D"/>
<path fill-rule="evenodd" clip-rule="evenodd" d="M24.9493 36.4368C24.7874 35.8815 24.5987 35.2325 24.3958 34.5386C24.2594 34.0799 24.1181 33.6005 23.9761 33.1153C24.0017 32.9211 24.0252 32.6852 24.0331 32.4202C24.0553 31.6899 23.9534 30.7522 23.7014 29.8523C23.6398 29.6271 23.5701 29.4047 23.4915 29.1869C23.418 28.9697 23.3348 28.7575 23.2457 28.5548C23.0696 28.1489 22.873 27.7778 22.6791 27.4684C22.4857 27.1573 22.2931 26.9053 22.1461 26.734C21.9984 26.5611 21.8968 26.4668 21.8968 26.4668C21.8968 26.4668 21.8593 26.5981 21.8182 26.8199C21.7783 27.0422 21.7407 27.3539 21.7305 27.7176C21.7196 28.0826 21.7383 28.5009 21.7937 28.9387C21.8193 29.1583 21.8553 29.3828 21.9022 29.6086C21.946 29.8343 21.9984 30.0627 22.06 30.2868C22.2999 31.1885 22.6871 32.0519 23.0804 32.6724C23.2173 32.8924 23.3529 33.0799 23.4726 33.2338C23.5969 33.729 23.719 34.2185 23.8357 34.6862C24.0131 35.3875 24.179 36.0421 24.3204 36.6025C24.6095 37.7242 24.8005 38.4726 24.8005 38.4726L24.8034 38.4821C24.854 38.659 25.0262 38.6776 25.2139 38.6253C25.402 38.5731 25.5359 38.4693 25.4846 38.2918C25.4846 38.2918 25.2707 37.5501 24.9493 36.4368" fill="#1D1D1D"/>
<path fill-rule="evenodd" clip-rule="evenodd" d="M10.482 30.3284C10.8542 30.1162 11.2664 29.8451 11.6786 29.5284C11.8844 29.3689 12.0955 29.2022 12.2973 29.0219C12.5048 28.8468 12.7025 28.6542 12.9004 28.4645C13.0938 28.2668 13.2881 28.0726 13.4664 27.8689C13.6502 27.6678 13.8205 27.4629 13.9808 27.2585C14.3023 26.8515 14.5776 26.446 14.7938 26.0789C15.0092 25.7145 15.1666 25.3861 15.2669 25.1475C15.3679 24.9072 15.4118 24.7583 15.4118 24.7583C15.4118 24.7583 15.2619 24.8027 15.0178 24.9011C14.775 25.001 14.4431 25.1558 14.071 25.3686C13.6991 25.5803 13.2881 25.851 12.8737 26.1682C12.6666 26.327 12.4573 26.4943 12.2546 26.674C12.0469 26.8509 11.8486 27.0423 11.6501 27.2321C11.4575 27.4274 11.262 27.6216 11.0835 27.8255C10.8988 28.0249 10.73 28.2315 10.5692 28.4352C10.2454 28.8412 9.97231 29.2471 9.75573 29.6137C9.60964 29.8613 9.49293 30.0887 9.40052 30.2857C9.31842 30.362 9.23284 30.4429 9.15424 30.5187C8.62516 31.0207 8.13259 31.4895 7.70958 31.8904C6.86753 32.6972 6.3059 33.234 6.3059 33.234L6.29796 33.2395C6.16855 33.3725 6.23809 33.5275 6.37767 33.6623C6.51677 33.7964 6.6754 33.8588 6.80592 33.7262C6.80592 33.7262 7.35088 33.1733 8.1707 32.3434C8.57784 31.928 9.05325 31.4424 9.56232 30.9225C9.63997 30.8432 9.72206 30.7595 9.80019 30.6782C9.99851 30.5872 10.23 30.4721 10.482 30.3284" fill="#1D1D1D"/>
<path fill-rule="evenodd" clip-rule="evenodd" d="M15.4775 29.808C15.7398 29.3627 15.9678 28.8995 16.1558 28.4498C16.3435 27.9996 16.4895 27.5635 16.5887 27.1749C16.6895 26.7863 16.7465 26.4473 16.7734 26.2035C16.7996 25.9581 16.7996 25.8101 16.7996 25.8101C16.7996 25.8101 16.6695 25.8846 16.4666 26.029C16.266 26.1749 15.9951 26.3916 15.7044 26.6718C15.4126 26.9508 15.1018 27.2932 14.8007 27.6779C14.4986 28.0631 14.2045 28.4903 13.9444 28.9355C13.4188 29.8248 13.0277 30.7894 12.8305 31.5675C12.7603 31.8415 12.7141 32.0881 12.6811 32.2957C12.5398 32.5253 12.4011 32.7516 12.2649 32.9728C11.8857 33.5921 11.5329 34.171 11.2307 34.6656C10.6292 35.6588 10.2273 36.3229 10.2273 36.3229L10.2227 36.3301C10.1316 36.4914 10.2388 36.6244 10.4098 36.7181C10.5797 36.8115 10.749 36.8316 10.8401 36.6699C10.8401 36.6699 11.2221 35.9968 11.7939 34.9874C12.0796 34.4803 12.4104 33.8903 12.7678 33.2574C12.8926 33.0318 13.0226 32.8005 13.1525 32.5674C13.3207 32.4344 13.5135 32.2706 13.7199 32.0734C14.3053 31.5153 14.9592 30.7006 15.4775 29.808" fill="#1D1D1D"/>
<path fill-rule="evenodd" clip-rule="evenodd" d="M18.4205 26.4746C18.4205 26.4746 18.3179 26.5756 18.1632 26.7592C18.0111 26.9434 17.811 27.2111 17.6092 27.5436C17.405 27.8749 17.1981 28.2696 17.0146 28.7024C16.8299 29.1353 16.6633 29.6035 16.5334 30.0835C16.2683 31.0391 16.1525 32.0352 16.1703 32.8105C16.1754 33.0888 16.1965 33.3359 16.2216 33.5392C16.1195 33.8834 16.022 34.2214 15.9238 34.5475C15.7211 35.2432 15.5328 35.891 15.3709 36.4474C15.0512 37.5597 14.8368 38.3024 14.8368 38.3024L14.8339 38.3103C14.7882 38.4895 14.9279 38.5905 15.1161 38.6388C15.3065 38.6854 15.4742 38.6618 15.5202 38.4826C15.5202 38.4826 15.7119 37.7343 16.0009 36.613C16.1417 36.0522 16.3065 35.3977 16.4833 34.6963C16.5676 34.3612 16.6548 34.0147 16.7421 33.6649C16.8651 33.501 17.0054 33.3017 17.1479 33.0687C17.5573 32.4067 17.9643 31.4871 18.2191 30.5287C18.3514 30.0499 18.4462 29.5614 18.5054 29.0954C18.567 28.6305 18.5875 28.187 18.5824 27.8002C18.5743 27.4144 18.538 27.0832 18.5002 26.8485C18.4592 26.6127 18.4205 26.4746 18.4205 26.4746" fill="#1D1D1D"/>
<path fill-rule="evenodd" clip-rule="evenodd" d="M20.6605 27.9049C20.5515 27.5423 20.432 27.2402 20.3332 27.0291C20.2346 26.818 20.1611 26.6973 20.1611 26.6973C20.1611 26.6973 20.0876 26.818 19.9877 27.0291C19.8897 27.2402 19.7689 27.5423 19.6611 27.9049C19.5532 28.2671 19.4588 28.6899 19.3948 29.1434C19.3309 29.5966 19.295 30.0801 19.295 30.5628C19.29 31.529 19.4399 32.4952 19.6588 33.2206C19.7357 33.4794 19.8202 33.7063 19.8976 33.8927C19.888 34.3143 19.8789 34.7309 19.8714 35.1312C19.8578 35.8544 19.8464 36.5292 19.8356 37.108C19.8178 38.2646 19.8065 39.0361 19.8065 39.0361V39.0457C19.8105 39.2303 19.9701 39.2915 20.1657 39.2882C20.3618 39.2869 20.518 39.2213 20.5157 39.0361C20.5157 39.0361 20.5026 38.2646 20.4866 37.108C20.4747 36.5292 20.4639 35.8544 20.4501 35.1312C20.4404 34.7309 20.4329 34.3143 20.4228 33.8927C20.5009 33.7063 20.5852 33.4794 20.6622 33.2206C20.8817 32.4952 21.0304 31.529 21.0254 30.5628C21.0277 30.0801 20.9888 29.5966 20.9268 29.1434C20.8629 28.6899 20.7683 28.2671 20.6605 27.9049" fill="#1D1D1D"/>
<path fill-rule="evenodd" clip-rule="evenodd" d="M21.8786 13.6644L21.9002 13.6975L21.9361 13.6796L22.0302 13.6267C22.1061 13.5807 22.203 13.5122 22.2976 13.423C22.488 13.2461 22.6551 12.9878 22.7303 12.7043C22.8083 12.4231 22.7953 12.1165 22.7195 11.87C22.687 11.7701 22.6498 11.6841 22.6139 11.6128C22.7621 11.1171 22.9286 10.5635 23.1059 9.97229C23.3136 9.27941 23.5347 8.53789 23.7547 7.79794C23.9736 7.05736 24.1926 6.31631 24.396 5.62171C24.5986 4.92726 24.789 4.27832 24.951 3.72179C25.2712 2.60904 25.4845 1.86628 25.4845 1.86628L25.4869 1.85736C25.5331 1.67879 25.3945 1.57714 25.2039 1.53102C25.0135 1.48395 24.8465 1.50646 24.8003 1.68661C24.8003 1.68661 24.6093 2.43453 24.3203 3.55556C24.1789 4.1171 24.0141 4.7723 23.8363 5.47456C23.6624 6.17699 23.4742 6.92538 23.2878 7.67487C23.1043 8.42562 22.919 9.17511 22.7451 9.87753C22.6015 10.4738 22.4651 11.0334 22.3421 11.5338C22.2736 11.5781 22.1931 11.6364 22.113 11.7111C21.9224 11.8886 21.756 12.1463 21.6825 12.4297C21.6059 12.7116 21.6185 13.0181 21.6939 13.2641C21.7314 13.3887 21.7805 13.4949 21.8216 13.5729L21.8786 13.6644Z" fill="#1D1D1D"/>
<path fill-rule="evenodd" clip-rule="evenodd" d="M21.0707 4.53987C20.9955 3.77411 20.8826 3.05933 20.7549 2.44855C20.6261 1.83651 20.4831 1.32611 20.3662 0.96911C20.2469 0.611956 20.1609 0.408203 20.1609 0.408203C20.1609 0.408203 20.0724 0.611956 19.9551 0.96911C19.837 1.32611 19.6934 1.83651 19.5656 2.44855C19.4374 3.05933 19.3263 3.77411 19.2515 4.53987C19.215 4.92157 19.1815 5.31688 19.1665 5.71829C19.1432 6.12032 19.1416 6.52845 19.1357 6.93611C19.1416 7.34377 19.145 7.7519 19.1672 8.15378C19.1848 8.55534 19.2156 8.95112 19.2539 9.33345C19.3291 10.0981 19.442 10.8116 19.5697 11.4237C19.6956 12.0362 19.8387 12.546 19.9562 12.9031C20.0753 13.2601 20.1609 13.4645 20.1609 13.4645C20.1609 13.4645 20.2469 13.2601 20.3649 12.9031C20.4813 12.546 20.6244 12.0362 20.7527 11.4237C20.8803 10.8116 20.9915 10.0981 21.0663 9.33345C21.105 8.95112 21.1357 8.55534 21.1535 8.15378C21.1762 7.7519 21.1797 7.34377 21.186 6.93611C21.1797 6.52845 21.1786 6.12032 21.1539 5.71829C21.1403 5.31688 21.1061 4.92157 21.0707 4.53987" fill="#1D1D1D"/>
<path fill-rule="evenodd" clip-rule="evenodd" d="M15.4792 6.67198C15.5589 7.05447 15.6621 7.43899 15.7613 7.82304C15.8719 8.20537 15.9779 8.58832 16.104 8.96002C16.2214 9.33328 16.3536 9.69606 16.4888 10.0452C16.7573 10.7453 17.0482 11.3877 17.3262 11.9305C17.6073 12.4729 17.8748 12.9164 18.08 13.2213C18.2847 13.5273 18.4204 13.6975 18.4204 13.6975C18.4204 13.6975 18.4534 13.4829 18.475 13.1169C18.495 12.7519 18.503 12.2365 18.4688 11.6291C18.4369 11.021 18.3621 10.3214 18.2396 9.58363C18.1792 9.21366 18.1079 8.83524 18.0219 8.45353C17.9409 8.07058 17.8388 7.68543 17.7408 7.30091C17.6301 6.91796 17.5242 6.53563 17.4004 6.16456C17.2835 5.79067 17.149 5.42726 17.015 5.07761C16.7476 4.37863 16.4575 3.73626 16.1764 3.19333C15.8958 2.65103 15.6267 2.20819 15.4239 1.90201C15.2175 1.59724 15.0795 1.42773 15.0795 1.42773C15.0795 1.42773 15.0481 1.64212 15.0247 2.00709C15.0036 2.37316 14.9946 2.88856 15.0281 3.49607C15.0613 4.10404 15.1354 4.80365 15.2585 5.54079C15.3217 5.91077 15.3907 6.29091 15.4792 6.67198Z" fill="#1D1D1D"/>
</svg>
